Normalized EMG Linear Envelopes
nRows=32
nColumns=17

endheader
time	        VM	        VL	        RF	       GRA	        TA	   ADDLONG	   SEMIMEM	      BFLH	        GM	        GL	       TFL	   GLUTMAX	   GLUTMED	      PIRI	    OBTINT	        QF	
1.875	  0.337781	  0.261210	  0.033942	  0.278730	  0.433660	  0.102796	  0.570140	  0.664547	  0.540178	  0.132000	  0.021072	  0.385819	  0.133249	  0.392352	  0.784470	  1.160270	
1.8755	  0.340940	  0.264767	  0.034352	  0.280707	  0.432999	  0.103756	  0.570630	  0.665402	  0.542127	  0.133335	  0.021285	  0.388893	  0.134223	  0.395829	  0.783218	  1.167162	
1.876	  0.344095	  0.268332	  0.034765	  0.282680	  0.432282	  0.104711	  0.571099	  0.666207	  0.544052	  0.134693	  0.021504	  0.391988	  0.135239	  0.399320	  0.782005	  1.173984	
1.8765	  0.347245	  0.271907	  0.035180	  0.284648	  0.431507	  0.105660	  0.571546	  0.666962	  0.545954	  0.136077	  0.021730	  0.395102	  0.136297	  0.402825	  0.780833	  1.180735	
1.877	  0.350390	  0.275490	  0.035597	  0.286609	  0.430675	  0.106603	  0.571971	  0.667664	  0.547832	  0.137484	  0.021962	  0.398236	  0.137396	  0.406346	  0.779704	  1.187410	
1.8775	  0.353528	  0.279082	  0.036016	  0.288563	  0.429785	  0.107539	  0.572377	  0.668312	  0.549688	  0.138915	  0.022200	  0.401388	  0.138536	  0.409882	  0.778622	  1.194005	
1.878	  0.356661	  0.282682	  0.036437	  0.290509	  0.428839	  0.108467	  0.572762	  0.668903	  0.551521	  0.140370	  0.022445	  0.404555	  0.139717	  0.413433	  0.777587	  1.200518	
1.8785	  0.359786	  0.286290	  0.036860	  0.292445	  0.427835	  0.109387	  0.573128	  0.669436	  0.553333	  0.141849	  0.022695	  0.407737	  0.140939	  0.417001	  0.776603	  1.206943	
1.879	  0.362903	  0.289905	  0.037285	  0.294371	  0.426776	  0.110299	  0.573475	  0.669910	  0.555124	  0.143352	  0.022953	  0.410933	  0.142201	  0.420585	  0.775672	  1.213278	
1.8795	  0.366013	  0.293527	  0.037711	  0.296284	  0.425660	  0.111202	  0.573803	  0.670321	  0.556897	  0.144878	  0.023216	  0.414139	  0.143504	  0.424186	  0.774794	  1.219519	
1.88	  0.369114	  0.297155	  0.038139	  0.298185	  0.424490	  0.112094	  0.574113	  0.670670	  0.558651	  0.146427	  0.023485	  0.417355	  0.144847	  0.427804	  0.773971	  1.225661	
1.8805	  0.372206	  0.300790	  0.038568	  0.300072	  0.423266	  0.112977	  0.574405	  0.670955	  0.560389	  0.148000	  0.023761	  0.420579	  0.146230	  0.431440	  0.773206	  1.231700	
1.881	  0.375288	  0.304430	  0.038998	  0.301944	  0.421990	  0.113849	  0.574679	  0.671175	  0.562112	  0.149596	  0.024043	  0.423808	  0.147652	  0.435095	  0.772499	  1.237635	
1.8815	  0.378361	  0.308075	  0.039429	  0.303798	  0.420663	  0.114709	  0.574935	  0.671331	  0.563820	  0.151215	  0.024330	  0.427041	  0.149114	  0.438768	  0.771850	  1.243460	
1.882	  0.381422	  0.311723	  0.039861	  0.305635	  0.419285	  0.115559	  0.575173	  0.671421	  0.565514	  0.152858	  0.024624	  0.430276	  0.150614	  0.442461	  0.771262	  1.249173	
1.8825	  0.384473	  0.315375	  0.040294	  0.307452	  0.417860	  0.116396	  0.575393	  0.671445	  0.567197	  0.154524	  0.024923	  0.433511	  0.152153	  0.446174	  0.770735	  1.254770	
1.883	  0.387512	  0.319029	  0.040728	  0.309248	  0.416387	  0.117221	  0.575594	  0.671402	  0.568867	  0.156213	  0.025228	  0.436743	  0.153731	  0.449909	  0.770271	  1.260248	
1.8835	  0.390539	  0.322684	  0.041161	  0.311022	  0.414867	  0.118033	  0.575777	  0.671291	  0.570526	  0.157925	  0.025539	  0.439971	  0.155346	  0.453665	  0.769871	  1.265606	
1.884	  0.393554	  0.326339	  0.041596	  0.312773	  0.413303	  0.118833	  0.575940	  0.671112	  0.572173	  0.159661	  0.025856	  0.443192	  0.156999	  0.457444	  0.769536	  1.270841	
1.8845	  0.396555	  0.329994	  0.042030	  0.314499	  0.411696	  0.119619	  0.576083	  0.670863	  0.573811	  0.161420	  0.026179	  0.446406	  0.158689	  0.461245	  0.769269	  1.275950	
1.885	  0.399542	  0.333647	  0.042464	  0.316200	  0.410046	  0.120393	  0.576207	  0.670545	  0.575438	  0.163202	  0.026507	  0.449609	  0.160415	  0.465071	  0.769071	  1.280931	
1.8855	  0.402515	  0.337297	  0.042899	  0.317874	  0.408355	  0.121153	  0.576312	  0.670157	  0.577055	  0.165008	  0.026840	  0.452801	  0.162177	  0.468921	  0.768944	  1.285782	
1.886	  0.405472	  0.340944	  0.043332	  0.319520	  0.406625	  0.121900	  0.576397	  0.669700	  0.578662	  0.166837	  0.027179	  0.455979	  0.163975	  0.472795	  0.768888	  1.290502	
1.8865	  0.408414	  0.344586	  0.043766	  0.321138	  0.404858	  0.122633	  0.576463	  0.669172	  0.580260	  0.168689	  0.027523	  0.459143	  0.165807	  0.476694	  0.768906	  1.295089	
1.887	  0.411338	  0.348223	  0.044199	  0.322726	  0.403055	  0.123353	  0.576510	  0.668575	  0.581849	  0.170565	  0.027873	  0.462291	  0.167674	  0.480617	  0.768998	  1.299540	
1.8875	  0.414246	  0.351852	  0.044630	  0.324284	  0.401218	  0.124058	  0.576539	  0.667909	  0.583431	  0.172465	  0.028228	  0.465421	  0.169575	  0.484566	  0.769165	  1.303857	
1.888	  0.417137	  0.355473	  0.045061	  0.325810	  0.399349	  0.124749	  0.576549	  0.667173	  0.585006	  0.174388	  0.028587	  0.468532	  0.171509	  0.488539	  0.769407	  1.308038	
1.8885	  0.420009	  0.359084	  0.045491	  0.327303	  0.397449	  0.125426	  0.576541	  0.666366	  0.586576	  0.176334	  0.028952	  0.471622	  0.173475	  0.492537	  0.769725	  1.312082	
1.889	  0.422864	  0.362685	  0.045920	  0.328763	  0.395521	  0.126089	  0.576517	  0.665491	  0.588142	  0.178304	  0.029322	  0.474691	  0.175472	  0.496559	  0.770121	  1.315991	
1.8895	  0.425700	  0.366274	  0.046347	  0.330190	  0.393567	  0.126737	  0.576476	  0.664545	  0.589705	  0.180297	  0.029696	  0.477738	  0.177501	  0.500605	  0.770594	  1.319764	
1.89	  0.428518	  0.369850	  0.046773	  0.331582	  0.391588	  0.127372	  0.576418	  0.663529	  0.591267	  0.182313	  0.030075	  0.480759	  0.179560	  0.504676	  0.771145	  1.323401	
1.8905	  0.431316	  0.373412	  0.047197	  0.332939	  0.389585	  0.127993	  0.576345	  0.662444	  0.592829	  0.184352	  0.030458	  0.483755	  0.181648	  0.508771	  0.771775	  1.326901	
